HIERARCHY
ROOT joint_0
{
	OFFSET 0.000000 0.000000 0.000000
	CHANNELS 6 Xposition Yposition Zposition Zrotation Yrotation Xrotation 
	JOINT joint_1
	{
		OFFSET 0.511002 1.944000 108.288940
		CHANNELS 3 Zrotation Yrotation Xrotation
		JOINT joint_2
		{
			OFFSET -9.074005 1.512993 98.440063
			CHANNELS 3 Zrotation Yrotation Xrotation
			JOINT joint_3
			{
				OFFSET -8.590996 1.815002 98.366943
				CHANNELS 3 Zrotation Yrotation Xrotation
				JOINT joint_4
				{
					OFFSET 2.489998 3.531998 136.462036
					CHANNELS 3 Zrotation Yrotation Xrotation
					JOINT joint_5
					{
						OFFSET 22.708000 2.955002 80.357056
						CHANNELS 3 Zrotation Yrotation Xrotation
						End Site
						{
							OFFSET 0.000000 0.000000 0.000000
						}
					}
				}
				JOINT joint_6
				{
					OFFSET 2.860001 -27.684998 77.234009
					CHANNELS 3 Zrotation Yrotation Xrotation
					JOINT joint_7
					{
						OFFSET 5.449997 -131.244003 -18.851929
						CHANNELS 3 Zrotation Yrotation Xrotation
						JOINT joint_8
						{
							OFFSET 35.757000 -24.661995 -264.074097
							CHANNELS 3 Zrotation Yrotation Xrotation
							JOINT joint_9
							{
								OFFSET 49.392001 -1.747002 -239.960938
								CHANNELS 3 Zrotation Yrotation Xrotation
								End Site
								{
									OFFSET 0.000000 0.000000 0.000000
								}
							}
						}
					}
				}
				JOINT joint_10
				{
					OFFSET -0.127998 31.625000 75.753052
					CHANNELS 3 Zrotation Yrotation Xrotation
					JOINT joint_11
					{
						OFFSET -5.618004 131.132996 -19.557007
						CHANNELS 3 Zrotation Yrotation Xrotation
						JOINT joint_12
						{
							OFFSET 46.488998 30.127991 -261.826050
							CHANNELS 3 Zrotation Yrotation Xrotation
							JOINT joint_13
							{
								OFFSET 66.021003 0.474030 -235.934937
								CHANNELS 3 Zrotation Yrotation Xrotation
								End Site
								{
									OFFSET 0.000000 0.000000 0.000000
								}
							}
						}
					}
				}
			}
		}
	}
	JOINT joint_14
	{
		OFFSET 15.887001 -78.871004 -94.561035
		CHANNELS 3 Zrotation Yrotation Xrotation
		JOINT joint_15
		{
			OFFSET -4.133003 6.714001 -473.615967
			CHANNELS 3 Zrotation Yrotation Xrotation
			JOINT joint_16
			{
				OFFSET -19.541000 5.340000 -399.613007
				CHANNELS 3 Zrotation Yrotation Xrotation
				JOINT joint_17
				{
					OFFSET 164.317001 41.657999 -73.195000
					CHANNELS 3 Zrotation Yrotation Xrotation
					End Site
					{
						OFFSET 0.000000 0.000000 0.000000
					}
				}
			}
		}
	}
	JOINT joint_18
	{
		OFFSET 6.513000 77.960991 -96.406982
		CHANNELS 3 Zrotation Yrotation Xrotation
		JOINT joint_19
		{
			OFFSET -10.660004 -8.518997 -473.485016
			CHANNELS 3 Zrotation Yrotation Xrotation
			JOINT joint_20
			{
				OFFSET -36.967995 -11.098999 -398.260010
				CHANNELS 3 Zrotation Yrotation Xrotation
				JOINT joint_21
				{
					OFFSET 166.067997 30.363998 -74.785000
					CHANNELS 3 Zrotation Yrotation Xrotation
					End Site
					{
						OFFSET 0.000000 0.000000 0.000000
					}
				}
			}
		}
	}
}
MOTION
Frames: 16
Frame Time: 0.016667
-1973.029663 893.332275 1060.844971 -1.286653 -1.993430 0.975653 -0.256290 0.511932 -0.075140 -0.237310 -0.071905 0.015483 -0.241445 0.095666 0.001874 0.345022 0.216772 -1.246063 0.000000 0.000000 0.000000 1.375881 0.049627 -0.680813 0.019351 0.243562 -0.700018 0.075392 1.258565 0.411366 0.000000 0.000000 0.000000 -2.466123 0.533844 -0.726334 0.140509 0.974650 0.487233 1.175328 4.537461 4.002079 0.000000 0.000000 0.000000 -2.753010 1.363166 -1.969581 -2.789368 0.054201 -0.564954 -2.753839 0.281700 -1.294972 0.000000 0.000000 0.000000 -2.138605 0.420631 0.867898 -2.069917 -1.635017 -0.505592 -2.103434 2.057528 -1.322087 0.000000 0.000000 0.000000 
-1973.151855 893.230225 1060.839966 -1.254321 -2.003159 0.976103 -0.255510 0.503831 -0.073390 -0.236933 -0.069547 0.014720 -0.240878 0.093808 0.002471 0.339590 0.232139 -1.229006 0.000000 0.000000 0.000000 1.375526 0.059072 -0.694473 0.015387 0.253413 -0.716410 0.072538 1.260578 0.397609 0.000000 0.000000 0.000000 -2.464916 0.546694 -0.730211 0.145971 0.989372 0.512354 1.176933 4.546548 4.008876 0.000000 0.000000 0.000000 -2.764464 1.367143 -1.962062 -2.800622 0.058671 -0.569215 -2.765156 0.281142 -1.299861 0.000000 0.000000 0.000000 -2.148428 0.416094 0.875140 -2.079720 -1.625845 -0.510280 -2.113019 2.060240 -1.326879 0.000000 0.000000 0.000000 
-1973.275146 893.128052 1060.833984 -1.223959 -2.012975 0.976511 -0.254464 0.496023 -0.071915 -0.236139 -0.068824 0.015006 -0.240097 0.092009 0.002098 0.334072 0.249275 -1.211875 0.000000 0.000000 0.000000 1.375718 0.070095 -0.706935 0.011468 0.264822 -0.733822 0.070123 1.264656 0.386050 0.000000 0.000000 0.000000 -2.461521 0.561415 -0.735172 0.151522 1.005643 0.536168 1.179144 4.556319 4.017824 0.000000 0.000000 0.000000 -2.775145 1.371653 -1.954985 -2.811151 0.061706 -0.572326 -2.775655 0.281663 -1.304660 0.000000 0.000000 0.000000 -2.157663 0.412724 0.882386 -2.088885 -1.618676 -0.514587 -2.122031 2.063898 -1.331587 0.000000 0.000000 0.000000 
-1973.398682 893.029907 1060.828003 -1.197666 -2.021824 0.976377 -0.252117 0.484893 -0.068054 -0.234492 -0.066922 0.013640 -0.238200 0.090547 0.002911 0.329006 0.267761 -1.196511 0.000000 0.000000 0.000000 1.376730 0.082819 -0.719127 0.007519 0.277904 -0.754581 0.068891 1.270724 0.380317 0.000000 0.000000 0.000000 -2.456328 0.577678 -0.742779 0.157308 1.023236 0.557611 1.182743 4.566135 4.031697 0.000000 0.000000 0.000000 -2.784191 1.375683 -1.948250 -2.820089 0.062631 -0.573672 -2.784419 0.284406 -1.309254 0.000000 0.000000 0.000000 -2.166077 0.410375 0.889843 -2.097161 -1.615233 -0.517898 -2.130246 2.070289 -1.336436 0.000000 0.000000 0.000000 
-1973.524414 892.932617 1060.821045 -1.173646 -2.030237 0.976155 -0.248972 0.472989 -0.063784 -0.232092 -0.065810 0.012227 -0.235555 0.089106 0.003779 0.323666 0.287243 -1.180308 0.000000 0.000000 0.000000 1.377124 0.097054 -0.731211 0.003724 0.292373 -0.775550 0.067989 1.279085 0.376263 0.000000 0.000000 0.000000 -2.450499 0.595629 -0.751651 0.163119 1.042415 0.577446 1.186847 4.576420 4.047372 0.000000 0.000000 0.000000 -2.792508 1.379441 -1.941964 -2.828331 0.062315 -0.573650 -2.792378 0.288521 -1.313839 0.000000 0.000000 0.000000 -2.173644 0.408375 0.897417 -2.104555 -1.613398 -0.521154 -2.137670 2.077771 -1.341130 0.000000 0.000000 0.000000 
-1973.648926 892.833374 1060.813965 -1.149534 -2.039056 0.976434 -0.246008 0.461917 -0.061744 -0.229477 -0.064085 0.012844 -0.232972 0.087137 0.003316 0.318347 0.306970 -1.164214 0.000000 0.000000 0.000000 1.376431 0.112261 -0.743617 0.000507 0.307762 -0.792331 0.067246 1.287954 0.373004 0.000000 0.000000 0.000000 -2.445793 0.615914 -0.759156 0.168511 1.063872 0.594825 1.189665 4.584459 4.058636 0.000000 0.000000 0.000000 -2.800812 1.383300 -1.936488 -2.836563 0.063031 -0.573068 -2.800337 0.291614 -1.318165 0.000000 0.000000 0.000000 -2.181359 0.406829 0.904367 -2.112108 -1.611373 -0.524233 -2.145219 2.084565 -1.345753 0.000000 0.000000 0.000000 
-1973.775146 892.731018 1060.807983 -1.125512 -2.049194 0.977206 -0.243511 0.454470 -0.061423 -0.227120 -0.062879 0.013230 -0.230635 0.086216 0.003058 0.313195 0.323262 -1.148244 0.000000 0.000000 0.000000 1.375347 0.127365 -0.757984 -0.001659 0.323272 -0.800656 0.065952 1.298017 0.367108 0.000000 0.000000 0.000000 -2.440523 0.637554 -0.765423 0.173210 1.086389 0.610794 1.190672 4.591391 4.063611 0.000000 0.000000 0.000000 -2.809293 1.387205 -1.931850 -2.844955 0.066454 -0.571857 -2.808477 0.293699 -1.322317 0.000000 0.000000 0.000000 -2.189378 0.406430 0.911074 -2.119949 -1.608714 -0.527754 -2.153048 2.089649 -1.350189 0.000000 0.000000 0.000000 
-1973.902222 892.626587 1060.802002 -1.101862 -2.059622 0.978413 -0.240969 0.448824 -0.062097 -0.224601 -0.062279 0.013445 -0.228150 0.085106 0.002538 0.307944 0.338691 -1.131806 0.000000 0.000000 0.000000 1.373289 0.143119 -0.772563 -0.003169 0.339376 -0.804867 0.064744 1.309511 0.361684 0.000000 0.000000 0.000000 -2.436717 0.661453 -0.770613 0.177524 1.111204 0.624929 1.190251 4.596363 4.063632 0.000000 0.000000 0.000000 -2.817589 1.390636 -1.927752 -2.853141 0.071447 -0.570451 -2.816446 0.295027 -1.326202 0.000000 0.000000 0.000000 -2.197291 0.406169 0.917277 -2.127703 -1.605621 -0.531135 -2.160760 2.094030 -1.354443 0.000000 0.000000 0.000000 
-1974.026367 892.523376 1060.796021 -1.081117 -2.068526 0.979135 -0.237973 0.439993 -0.061380 -0.221784 -0.059757 0.014303 -0.225427 0.083283 0.001494 0.302978 0.352787 -1.116189 0.000000 0.000000 0.000000 1.370640 0.158847 -0.787084 -0.004565 0.355369 -0.808660 0.064105 1.319333 0.358966 0.000000 0.000000 0.000000 -2.435596 0.688940 -0.774541 0.181516 1.139701 0.634174 1.188033 4.594193 4.057479 0.000000 0.000000 0.000000 -2.825164 1.392316 -1.922640 -2.860566 0.076311 -0.569631 -2.823681 0.297038 -1.329933 0.000000 0.000000 0.000000 -2.204128 0.404034 0.924182 -2.134423 -1.600943 -0.534868 -2.167453 2.097552 -1.358082 0.000000 0.000000 0.000000 
-1974.145630 892.421509 1060.788940 -1.064700 -2.074185 0.978149 -0.234786 0.428079 -0.055638 -0.219492 -0.059647 0.012582 -0.222886 0.081869 0.002272 0.298713 0.364496 -1.102718 0.000000 0.000000 0.000000 1.369926 0.175079 -0.803540 -0.005945 0.372194 -0.813073 0.064735 1.326283 0.362305 0.000000 0.000000 0.000000 -2.433954 0.721514 -0.778017 0.184933 1.172833 0.637003 1.183911 4.585341 4.044748 0.000000 0.000000 0.000000 -2.831576 1.390712 -1.914353 -2.866728 0.080516 -0.570741 -2.829759 0.299704 -1.333317 0.000000 0.000000 0.000000 -2.209656 0.398412 0.933478 -2.139869 -1.594558 -0.539254 -2.172909 2.099244 -1.360832 0.000000 0.000000 0.000000 
-1974.261963 892.319946 1060.782959 -1.050806 -2.077723 0.976580 -0.231246 0.411647 -0.048219 -0.217189 -0.056696 0.010199 -0.220119 0.078989 0.004015 0.294618 0.376781 -1.089913 0.000000 0.000000 0.000000 1.368403 0.191363 -0.819349 -0.007282 0.388876 -0.818521 0.066131 1.332188 0.369329 0.000000 0.000000 0.000000 -2.435158 0.757802 -0.781308 0.188070 1.209876 0.635645 1.177971 4.570365 4.025694 0.000000 0.000000 0.000000 -2.837026 1.386493 -1.904774 -2.871859 0.085093 -0.572881 -2.834858 0.303507 -1.336554 0.000000 0.000000 0.000000 -2.214343 0.390144 0.943587 -2.144534 -1.586364 -0.543868 -2.177573 2.100215 -1.363095 0.000000 0.000000 0.000000 
-1974.383545 892.221985 1060.776001 -1.039499 -2.084869 0.975623 -0.227305 0.401727 -0.041112 -0.214250 -0.055754 0.008380 -0.216831 0.077309 0.005642 0.291127 0.386055 -1.078830 0.000000 0.000000 0.000000 1.366981 0.205218 -0.833628 -0.008598 0.403108 -0.823328 0.067067 1.336515 0.374055 0.000000 0.000000 0.000000 -2.439034 0.794189 -0.783778 0.190772 1.247223 0.632018 1.169252 4.546645 3.997121 0.000000 0.000000 0.000000 -2.841643 1.385338 -1.896595 -2.876220 0.090270 -0.574446 -2.839177 0.307516 -1.339496 0.000000 0.000000 0.000000 -2.218164 0.385376 0.952681 -2.148303 -1.577645 -0.548265 -2.181346 2.101811 -1.365073 0.000000 0.000000 0.000000 
-1974.512573 892.129395 1060.770020 -1.030504 -2.097809 0.975871 -0.222821 0.399945 -0.034702 -0.210516 -0.054839 0.006948 -0.212906 0.077253 0.006184 0.288137 0.391533 -1.069007 0.000000 0.000000 0.000000 1.364737 0.215147 -0.843103 -0.010032 0.413063 -0.829382 0.067233 1.339815 0.375003 0.000000 0.000000 0.000000 -2.446362 0.830165 -0.784577 0.192933 1.284431 0.626298 1.157267 4.513369 3.957346 0.000000 0.000000 0.000000 -2.845486 1.389284 -1.891439 -2.879934 0.096411 -0.573965 -2.842747 0.312208 -1.342278 0.000000 0.000000 0.000000 -2.221285 0.386412 0.959608 -2.151329 -1.568830 -0.551765 -2.184349 2.106216 -1.367217 0.000000 0.000000 0.000000 
-1974.647827 892.039368 1060.762939 -1.023349 -2.113961 0.976733 -0.217804 0.403306 -0.028650 -0.206124 -0.053857 0.005458 -0.208287 0.076681 0.006976 0.285447 0.395385 -1.060026 0.000000 0.000000 0.000000 1.361290 0.222922 -0.850481 -0.011465 0.420612 -0.835287 0.067034 1.341744 0.374128 0.000000 0.000000 0.000000 -2.457933 0.866353 -0.784211 0.194610 1.322275 0.618528 1.142359 4.472112 3.907471 0.000000 0.000000 0.000000 -2.848644 1.395589 -1.887662 -2.883007 0.103694 -0.572826 -2.845658 0.317420 -1.344899 0.000000 0.000000 0.000000 -2.223657 0.390217 0.965532 -2.153592 -1.559157 -0.555049 -2.186577 2.111182 -1.369117 0.000000 0.000000 0.000000 
-1974.790039 891.948730 1060.755981 -1.018226 -2.129340 0.978082 -0.212209 0.407858 -0.023050 -0.201040 -0.055081 0.004154 -0.203055 0.078620 0.007961 0.283024 0.398197 -1.051844 0.000000 0.000000 0.000000 1.357327 0.228467 -0.856736 -0.012695 0.425779 -0.841306 0.066963 1.343068 0.373847 0.000000 0.000000 0.000000 -2.469418 0.898526 -0.786981 0.196221 1.356425 0.615651 1.124694 4.426119 3.848130 0.000000 0.000000 0.000000 -2.851098 1.399593 -1.883770 -2.885312 0.112530 -0.572778 -2.847878 0.323297 -1.347380 0.000000 0.000000 0.000000 -2.225613 0.391915 0.970436 -2.155571 -1.547172 -0.557128 -2.188344 2.115640 -1.370717 0.000000 0.000000 0.000000 
-1974.942505 891.860352 1060.748047 -1.015883 -2.142555 0.979907 -0.206228 0.411636 -0.016653 -0.195656 -0.055337 0.003012 -0.197547 0.078539 0.008254 0.280905 0.402992 -1.044996 0.000000 0.000000 0.000000 1.354361 0.232219 -0.862878 -0.013524 0.429259 -0.846671 0.066926 1.345983 0.373783 0.000000 0.000000 0.000000 -2.477583 0.927327 -0.793484 0.197935 1.387252 0.621531 1.102153 4.373080 3.772022 0.000000 0.000000 0.000000 -2.852836 1.398179 -1.879695 -2.886749 0.125594 -0.574098 -2.849376 0.329198 -1.349546 0.000000 0.000000 0.000000 -2.226393 0.389536 0.973891 -2.156578 -1.531920 -0.557687 -2.188904 2.117297 -1.371263 0.000000 0.000000 0.000000 
